<svg id="Layer_1" data-name="Layer 1" xmlns="http://www.w3.org/2000/svg" xmlns:xlink="http://www.w3.org/1999/xlink" viewBox="0 0 889.26 236.5"><defs><style>.cls-1{fill:url(#linear-gradient);}.cls-2{fill:url(#linear-gradient-2);}.cls-3{fill:url(#linear-gradient-3);}.cls-4{fill:#46bfeb;}.cls-5{fill:#fff;}</style><linearGradient id="linear-gradient" x1="61.4" y1="242.76" x2="164.63" y2="192.81" gradientTransform="matrix(1, 0, 0, -1, -0.01, 238)" gradientUnits="userSpaceOnUse"><stop offset="0" stop-color="#84c8dd"/><stop offset="1" stop-color="#28a399"/></linearGradient><linearGradient id="linear-gradient-2" x1="72.73" y1="-30.08" x2="72.73" y2="186.35" gradientTransform="matrix(1, 0, 0, -1, 0, 238)" gradientUnits="userSpaceOnUse"><stop offset="0" stop-color="#0098cc"/><stop offset="0.61" stop-color="#cde3c2"/></linearGradient><linearGradient id="linear-gradient-3" x1="72.72" y1="209.66" x2="72.72" y2="-28.45" gradientTransform="matrix(1, 0, 0, -1, 0, 238)" gradientUnits="userSpaceOnUse"><stop offset="0.28" stop-color="#6fc7f1"/><stop offset="1" stop-color="#2baae2"/></linearGradient></defs><g id="Layer_2" data-name="Layer 2"><g id="Layer_2-2" data-name="Layer 2-2"><polygon class="cls-1" points="109.07 36.62 145.42 18.14 109.07 0 72.71 18.14 109.07 36.62"/><path class="cls-2" d="M72.72,22.28V125.86h0V129h0v.1H70.29a34.79,34.79,0,1,0,37.23,34.7V40Z" transform="translate(-0.01)"/><path class="cls-3" d="M110.63,40V163.8A37.92,37.92,0,1,1,70.29,126V91.12a72.71,72.71,0,1,0,75.14,72.65V22.49H145Z" transform="translate(-0.01)"/><path class="cls-4" d="M243.29,51v69.07q0,16.31-8.15,24.66t-23.43,8.36a33.89,33.89,0,0,1-8.8-1.08,28.92,28.92,0,0,1-7.86-3.46,43,43,0,0,1-7.57-6.13,93,93,0,0,1-7.93-9.23l15.29-14.13a45.88,45.88,0,0,0,8.65,10.24,14.94,14.94,0,0,0,9.81,3.6c3.55,0,6.07-1.17,7.57-3.53s2.23-5.5,2.23-9.44V51Z" transform="translate(-0.01)"/><path class="cls-4" d="M268.09,79.84v44.41c0,3.56,1.17,6.2,3.53,7.93a13.64,13.64,0,0,0,8.29,2.6,17.67,17.67,0,0,0,8.58-1.8,15.42,15.42,0,0,0,5.27-4.69V79.84h19v72.1h-18.6v-2q-6.63,2.88-16.3,2.88a36,36,0,0,1-11.32-1.73,26.09,26.09,0,0,1-9.15-5.12,23.79,23.79,0,0,1-6.13-8.36A28,28,0,0,1,249.05,126V79.84Z" transform="translate(-0.01)"/><path class="cls-4" d="M364.55,151.94h-16l-30-72.1h20.76l17.3,43.55,17.6-43.55H394Z" transform="translate(-0.01)"/><path class="cls-5" d="M446.46,151.94V106.52q0-7.22-4.18-10.67a16.76,16.76,0,0,0-16.66-2.17A23.57,23.57,0,0,0,420,97a17.84,17.84,0,0,0-4,4.4,8.28,8.28,0,0,0-1.51,4.4v46.14H399.74V79.7h14.71v5.19a27.07,27.07,0,0,1,8.36-4.62,32.89,32.89,0,0,1,11-1.73,33.46,33.46,0,0,1,10.6,1.66,24.3,24.3,0,0,1,8.65,5,23.86,23.86,0,0,1,5.84,8.21,27.72,27.72,0,0,1,2.1,11.23v47.3Z" transform="translate(-0.01)"/><path class="cls-5" d="M466.79,59.36a8.36,8.36,0,1,1,8.36,8.36A8.36,8.36,0,0,1,466.79,59.36Zm1.15,92.58V79.84h14.71v72.1Z" transform="translate(-0.01)"/><path class="cls-5" d="M532.54,151.94H519.27l-30-72h16L526,131.71,547.1,80h15Z" transform="translate(-0.01)"/><path class="cls-5" d="M630.16,141.41a32,32,0,0,1-11.54,8.29,40.89,40.89,0,0,1-16,2.82,36.52,36.52,0,0,1-15.29-3,30.82,30.82,0,0,1-10.81-8A34.2,34.2,0,0,1,570,130a43.37,43.37,0,0,1-2.16-13.7,47.56,47.56,0,0,1,2.59-16.51A32.28,32.28,0,0,1,577.6,88.2a29.07,29.07,0,0,1,10.46-6.85,35.85,35.85,0,0,1,12.68-2.23q16,0,24,10.38t8,30.28h-49.9q1.15,9.09,6.42,14.21t13.92,5.12a23.9,23.9,0,0,0,10-2.17,29.6,29.6,0,0,0,9.37-7.21l9.23,9.81ZM600.74,92q-7.92,0-11.89,4a21.11,21.11,0,0,0-5.41,10.53h34.32a16.78,16.78,0,0,0-5-10.38Q608.55,92,600.74,92Z" transform="translate(-0.01)"/><path class="cls-5" d="M680.92,94.84A41.14,41.14,0,0,0,675.29,93a21.22,21.22,0,0,0-4.76-.64,16.31,16.31,0,0,0-6.2,1.29A21.9,21.9,0,0,0,658.71,97a18.62,18.62,0,0,0-4,4.4,8.37,8.37,0,0,0-1.51,4.4v46.14H638.52V79.84h14.71v5a27.07,27.07,0,0,1,8.36-4.62,32.89,32.89,0,0,1,11-1.73A44.6,44.6,0,0,1,678,79a43.74,43.74,0,0,1,6.78,1.44Z" transform="translate(-0.01)"/><path class="cls-5" d="M733.55,99.88a21,21,0,0,0-6.28-5.62,16.26,16.26,0,0,0-8-1.87c-3.46,0-5.94.6-7.42,1.8a5.59,5.59,0,0,0-2.24,4.54c0,2.5,1.34,4.42,4,5.77a58.83,58.83,0,0,0,9.23,3.6q3.88,1.31,7.86,2.82a27.61,27.61,0,0,1,7.2,4,20.17,20.17,0,0,1,5.34,6.35,19.44,19.44,0,0,1,2.09,9.44A20,20,0,0,1,737.58,147a25.31,25.31,0,0,1-8.43,4.26,36,36,0,0,1-10.31,1.44,33.15,33.15,0,0,1-15-3.39,43.85,43.85,0,0,1-13.26-10.89l10.95-10.09Q709.47,139,719.27,139q5.91,0,8.72-2a5.92,5.92,0,0,0,2.82-4.9,6.43,6.43,0,0,0-1.16-3.89,11,11,0,0,0-3.1-2.82A21.71,21.71,0,0,0,722,123.3l-5.33-1.73c-2.6-.76-5.2-1.63-7.79-2.59A25.73,25.73,0,0,1,702,115.1a18.89,18.89,0,0,1-5-6.06,19.81,19.81,0,0,1-1.94-9.3q0-10.09,6.85-15.57t17.8-5.48a31.56,31.56,0,0,1,13.92,3q6.27,3,12.47,10.67l-10.38,10Z" transform="translate(-0.01)"/><path class="cls-5" d="M751.86,59.36a8.36,8.36,0,1,1,16.72,0v0a8.36,8.36,0,1,1-16.72,0ZM753,151.94V79.84h14.71v72.1Z" transform="translate(-0.01)"/><path class="cls-5" d="M780.41,93.25h-6.06V79.55h6.06v-17h14.71v17H806.8v13.7H795.12v31c0,1.93.07,3.78.21,5.56a22,22,0,0,0,.87,4.75,8.38,8.38,0,0,0,1.87,3.39,4.7,4.7,0,0,0,3.25,1.44,6.31,6.31,0,0,0,1.94,0,15.15,15.15,0,0,0,2-.43l1.59-.07,1.58-.07,2,12.4c-2,.38-3.82.7-5.41.93a27.15,27.15,0,0,1-3.82.37,20,20,0,0,1-10.09-2.31,17.88,17.88,0,0,1-6.42-6.13,25.42,25.42,0,0,1-3.32-8.87,58.7,58.7,0,0,1-.93-10.67Z" transform="translate(-0.01)"/><path class="cls-5" d="M824.1,166.79q2.73-.57,6.41-1.73a36.37,36.37,0,0,0,7-3,20,20,0,0,0,5.62-4.68,10.71,10.71,0,0,0,2.45-6.56l-29.41-71h16.44L853.08,131l20.33-51.19h15.86L860,151.36v-.14l-2.45,6.49v-.15a29.3,29.3,0,0,1-10.38,14.78q-7.78,6.14-19.9,7.57Z" transform="translate(-0.01)"/></g></g></svg>